<?xml version="1.0" encoding="UTF-8"?>
<svg version="1.1" xmlns="http://www.w3.org/2000/svg" width="512" height="512">
<path d="M0 0 C1.94128633 -0.00712721 3.88257062 -0.01482978 5.82385254 -0.02307129 C9.87481548 -0.03643364 13.92558385 -0.03812377 17.9765625 -0.03222656 C22.08232976 -0.02752221 26.18732392 -0.04132794 30.29296875 -0.07324219 C73.81818639 -0.40768066 73.81818639 -0.40768066 92.65625 5.46875 C93.92098145 5.8188916 95.18571289 6.1690332 96.48876953 6.52978516 C99.68621575 7.44432354 102.82360183 8.45184249 105.96875 9.53125 C107.07847168 9.90773682 108.18819336 10.28422363 109.33154297 10.67211914 C142.76497631 22.36603901 172.19985816 40.54488655 198.3125 64.34375 C200.46317711 66.29369724 202.64449971 68.19901129 204.84375 70.09375 C211.31343811 75.74498359 217.14135243 81.88847449 222.65625 88.46875 C223.08035156 88.97374023 223.50445312 89.47873047 223.94140625 89.99902344 C236.20911827 104.70148332 246.78887709 120.49583256 255.65625 137.46875 C256.24720459 138.58564209 256.24720459 138.58564209 256.85009766 139.72509766 C268.37864556 161.78149906 276.15669698 186.01931543 280.65625 210.46875 C280.81706055 211.26941895 280.97787109 212.07008789 281.14355469 212.89501953 C286.6356941 240.97287453 286.39021692 274.45852935 280.65625 302.46875 C280.46289062 303.46535645 280.26953125 304.46196289 280.0703125 305.48876953 C272.13052489 345.67169157 255.4889958 383.57540992 229.65625 415.46875 C228.95371094 416.36335938 228.25117188 417.25796875 227.52734375 418.1796875 C205.46987352 445.88354514 177.9568732 468.0163948 146.65625 484.46875 C145.90730469 484.86562012 145.15835937 485.26249023 144.38671875 485.67138672 C122.33505409 497.19548427 98.09928189 504.9703753 73.65625 509.46875 C72.85558105 509.62956055 72.05491211 509.79037109 71.22998047 509.95605469 C43.15212547 515.4481941 9.66647065 515.20271692 -18.34375 509.46875 C-19.83865967 509.17871094 -19.83865967 509.17871094 -21.36376953 508.8828125 C-61.54669157 500.94302489 -99.45040992 484.3014958 -131.34375 458.46875 C-132.23835938 457.76621094 -133.13296875 457.06367188 -134.0546875 456.33984375 C-150.62877088 443.1437627 -165.16659816 428.12465366 -177.96875 411.27636719 C-178.88040531 410.07787715 -179.79703301 408.88315213 -180.71875 407.69238281 C-188.59861837 397.50116101 -195.18352599 386.77545951 -201.34375 375.46875 C-201.7056543 374.8082666 -202.06755859 374.1477832 -202.44042969 373.46728516 C-213.49970127 353.03673607 -221.19869695 331.08613467 -226.34375 308.46875 C-226.59977745 307.53471848 -226.59977745 307.53471848 -226.86097717 306.58181763 C-229.10310825 297.41022149 -228.69234767 287.95724438 -228.71484375 278.578125 C-228.7238331 276.62729839 -228.73295527 274.67647238 -228.74220276 272.72564697 C-228.75864222 268.64064879 -228.76638245 264.55573199 -228.76928711 260.47070312 C-228.77463593 255.30051227 -228.81219232 250.1311157 -228.85803127 244.96114731 C-228.88816633 240.92842004 -228.89501861 236.89587465 -228.89601326 232.86304474 C-228.9001513 230.96092378 -228.91231803 229.05879886 -228.93353081 227.15679169 C-229.07898873 212.97505572 -227.01399615 200.15435157 -223.34375 186.46875 C-223.10573827 185.57425266 -222.86772654 184.67975533 -222.62250233 183.75815201 C-208.52706854 131.06122335 -174.71286175 80.52697702 -130.34375 48.46875 C-129.19600242 47.61540608 -128.04887638 46.76122561 -126.90234375 45.90625 C-118.70967098 39.86066996 -110.19048093 34.50050896 -101.34375 29.46875 C-100.71194824 29.10426758 -100.08014648 28.73978516 -99.42919922 28.36425781 C-79.46089463 16.93506403 -57.63106492 9.0137951 -35.34375 3.46875 C-34.30888458 3.21016708 -33.27401917 2.95158417 -32.20779419 2.68516541 C-21.43876916 0.25819224 -11.00771306 -0.00499112 0 0 Z " fill="#FB5875" transform="translate(228.34375,-0.46875)"/>
<path d="M0 0 C1.94128633 -0.00712721 3.88257062 -0.01482978 5.82385254 -0.02307129 C9.87481548 -0.03643364 13.92558385 -0.03812377 17.9765625 -0.03222656 C22.08232976 -0.02752221 26.18732392 -0.04132794 30.29296875 -0.07324219 C73.81818639 -0.40768066 73.81818639 -0.40768066 92.65625 5.46875 C93.92098145 5.8188916 95.18571289 6.1690332 96.48876953 6.52978516 C99.68621575 7.44432354 102.82360183 8.45184249 105.96875 9.53125 C107.07847168 9.90773682 108.18819336 10.28422363 109.33154297 10.67211914 C142.76497631 22.36603901 172.19985816 40.54488655 198.3125 64.34375 C200.46317711 66.29369724 202.64449971 68.19901129 204.84375 70.09375 C208.62221078 73.39131577 212.19451722 76.84092398 215.65625 80.46875 C216.89375 81.7371875 216.89375 81.7371875 218.15625 83.03125 C219.65625 85.46875 219.65625 85.46875 219.50390625 88.13671875 C218.46602157 92.21651429 216.67465809 95.59900873 214.59375 99.21875 C214.16255859 99.98098877 213.73136719 100.74322754 213.28710938 101.52856445 C203.73479552 118.22699725 193.55096566 134.61225946 182.65625 150.46875 C181.74475624 151.80205912 180.8332994 153.13539347 179.921875 154.46875 C178.06958206 157.17422417 176.20962782 159.8741924 174.34375 162.5703125 C172.55448338 165.15725072 170.78514885 167.75614983 169.03125 170.3671875 C168.6194751 170.97546387 168.2077002 171.58374023 167.78344727 172.21044922 C166.66277739 173.86673168 165.54798961 175.52698971 164.43359375 177.1875 C163.84707031 177.9403125 163.26054687 178.693125 162.65625 179.46875 C161.99625 179.46875 161.33625 179.46875 160.65625 179.46875 C160.32753906 178.47617188 159.99882812 177.48359375 159.66015625 176.4609375 C152.62053307 156.01612835 140.47242291 139.20737089 120.65625 129.46875 C107.78099668 124.03102803 95.00227771 122.16785239 81.08520508 122.17822266 C79.7730603 122.17150543 78.46091553 122.16478821 77.10900879 122.15786743 C73.54049878 122.14035039 69.97208494 122.13551811 66.40353608 122.13423586 C64.16457473 122.13280534 61.92563714 122.12851884 59.68668175 122.12324142 C51.84864144 122.1047872 44.01066874 122.09656486 36.17260742 122.09814453 C28.9102158 122.09934412 21.64812221 122.07826595 14.3858059 122.0466572 C8.11445901 122.02035156 1.8432086 122.0097832 -4.42819291 122.01105535 C-8.15771749 122.01156088 -11.88697682 122.00610788 -15.61644554 121.98469925 C-40.54808357 121.8516764 -61.58792816 123.48173652 -81.34375 140.46875 C-82.313125 141.23058594 -83.2825 141.99242187 -84.28125 142.77734375 C-87.472252 145.44319341 -89.95523832 148.51762965 -92.34375 151.90625 C-92.77308838 152.51460693 -93.20242676 153.12296387 -93.64477539 153.74975586 C-103.2850568 167.86620635 -106.81696558 183.32940987 -106.73193359 200.28271484 C-106.73719055 201.59675797 -106.74244751 202.91080109 -106.74786377 204.2646637 C-106.76139419 207.82892368 -106.756298 211.3929195 -106.74672651 214.95718336 C-106.73905177 218.71508385 -106.74619725 222.47296396 -106.75088501 226.23086548 C-106.75632142 232.54001868 -106.74920828 238.84906605 -106.73486328 245.15820312 C-106.71855502 252.41380195 -106.72382051 259.66914754 -106.7403425 266.9247402 C-106.75403508 273.19272259 -106.75583895 279.46062953 -106.74802649 285.72862208 C-106.74339052 289.45522551 -106.7426106 293.18171067 -106.75263596 296.90830612 C-106.76305495 301.07101742 -106.74854255 305.2333048 -106.73193359 309.39599609 C-106.73800629 310.60269455 -106.74407898 311.80939301 -106.75033569 313.05265808 C-106.65361013 326.25402773 -104.20079767 338.56156517 -98.34375 350.46875 C-97.87453125 351.44328125 -97.4053125 352.4178125 -96.921875 353.421875 C-86.76815989 372.62345506 -69.30224367 382.70489592 -49.34375 389.46875 C-49.34375 390.12875 -49.34375 390.78875 -49.34375 391.46875 C-51.84678628 393.35390831 -54.36243449 395.1095692 -56.96875 396.84375 C-57.80414307 397.40610352 -58.63953613 397.96845703 -59.50024414 398.54785156 C-61.39181433 399.81915994 -63.28560521 401.08716803 -65.18115234 402.35253906 C-67.96062691 404.21238818 -70.73190169 406.083479 -73.50016785 407.95991516 C-86.62819418 416.85310864 -99.84905392 425.55379928 -113.40625 433.78125 C-114.51605225 434.45575195 -115.62585449 435.13025391 -116.76928711 435.82519531 C-119.94534915 437.73433246 -123.13824132 439.60952557 -126.34375 441.46875 C-127.20598175 441.97677155 -127.20598175 441.97677155 -128.08563232 442.49505615 C-129.82798172 443.51621879 -131.5838304 444.51423609 -133.33984375 445.51171875 C-134.37165771 446.10364014 -135.40347168 446.69556152 -136.46655273 447.30541992 C-139.71771755 448.61995538 -141.0759139 448.62703645 -144.34375 447.46875 C-157.33521687 437.58844719 -168.18481997 424.20111053 -177.98486328 411.26025391 C-178.88908972 410.0681566 -179.79891978 408.88028861 -180.71435547 407.69677734 C-188.59604484 397.50402109 -195.1823876 386.77754894 -201.34375 375.46875 C-201.7056543 374.8082666 -202.06755859 374.1477832 -202.44042969 373.46728516 C-213.49970127 353.03673607 -221.19869695 331.08613467 -226.34375 308.46875 C-226.59977745 307.53471848 -226.59977745 307.53471848 -226.86097717 306.58181763 C-229.10310825 297.41022149 -228.69234767 287.95724438 -228.71484375 278.578125 C-228.7238331 276.62729839 -228.73295527 274.67647238 -228.74220276 272.72564697 C-228.75864222 268.64064879 -228.76638245 264.55573199 -228.76928711 260.47070312 C-228.77463593 255.30051227 -228.81219232 250.1311157 -228.85803127 244.96114731 C-228.88816633 240.92842004 -228.89501861 236.89587465 -228.89601326 232.86304474 C-228.9001513 230.96092378 -228.91231803 229.05879886 -228.93353081 227.15679169 C-229.07898873 212.97505572 -227.01399615 200.15435157 -223.34375 186.46875 C-223.10573827 185.57425266 -222.86772654 184.67975533 -222.62250233 183.75815201 C-208.52706854 131.06122335 -174.71286175 80.52697702 -130.34375 48.46875 C-129.19600242 47.61540608 -128.04887638 46.76122561 -126.90234375 45.90625 C-118.70967098 39.86066996 -110.19048093 34.50050896 -101.34375 29.46875 C-100.71194824 29.10426758 -100.08014648 28.73978516 -99.42919922 28.36425781 C-79.46089463 16.93506403 -57.63106492 9.0137951 -35.34375 3.46875 C-34.30888458 3.21016708 -33.27401917 2.95158417 -32.20779419 2.68516541 C-21.43876916 0.25819224 -11.00771306 -0.00499112 0 0 Z " fill="#FC9053" transform="translate(228.34375,-0.46875)"/>
<path d="M0 0 C33.06264007 32.06074189 52.77352753 79.29942649 61 124 C61.16081055 124.80066895 61.32162109 125.60133789 61.48730469 126.42626953 C66.9794441 154.50412453 66.73396692 187.98977935 61 216 C60.70996094 217.49490967 60.70996094 217.49490967 60.4140625 219.02001953 C52.47427489 259.20294157 35.8327458 297.10665992 10 329 C9.29746094 329.89460938 8.59492188 330.78921875 7.87109375 331.7109375 C-14.18637648 359.41479514 -41.6993768 381.5476448 -73 398 C-73.74894531 398.39687012 -74.49789063 398.79374023 -75.26953125 399.20263672 C-97.32119591 410.72673427 -121.55696811 418.5016253 -146 423 C-146.80066895 423.16081055 -147.60133789 423.32162109 -148.42626953 423.48730469 C-176.50412453 428.9794441 -209.98977935 428.73396692 -238 423 C-238.99660645 422.80664062 -239.99321289 422.61328125 -241.02001953 422.4140625 C-281.16190226 414.48238389 -319.16539519 397.86298805 -351 372 C-351.53189941 371.56961426 -352.06379883 371.13922852 -352.61181641 370.69580078 C-355.75690613 368.14932616 -358.88559859 365.58389215 -362 363 C-359.75755763 361.50503842 -357.61422403 360.21778103 -355.24609375 358.9609375 C-334.9740671 348.08452639 -315.59250296 335.90213244 -296.5625 323 C-295.91227875 322.55924133 -295.2620575 322.11848267 -294.59213257 321.66436768 C-287.31096074 316.7187576 -280.12261329 311.69363686 -273.08959961 306.3984375 C-271 305 -271 305 -269 305 C-269 304.34 -269 303.68 -269 303 C-268.1468636 303.10547716 -268.1468636 303.10547716 -267.27649212 303.21308517 C-260.10572079 304.02283033 -253.01339782 304.15437835 -245.80200195 304.16113281 C-243.87548546 304.16858017 -243.87548546 304.16858017 -241.91004944 304.17617798 C-238.41387863 304.18918557 -234.91772691 304.19572376 -231.42153573 304.20018864 C-229.22866013 304.20313794 -227.03578953 304.20724602 -224.84291649 304.21169281 C-217.95674776 304.22533624 -211.07059073 304.23501862 -204.18440944 304.2388947 C-196.2817236 304.24336972 -188.37921121 304.26090503 -180.47657806 304.2898953 C-174.33606192 304.31162635 -168.19559418 304.32160501 -162.05504006 304.32293582 C-158.40214241 304.32397559 -154.74940847 304.32970427 -151.0965519 304.34775543 C-126.26892609 304.46339182 -105.71427175 303.23016047 -85 288 C-84.40574219 287.57976562 -83.81148438 287.15953125 -83.19921875 286.7265625 C-69.00337217 275.93618855 -60.58439881 256.45762173 -58.20692825 239.23925209 C-57.74097192 234.19695514 -57.86215664 229.12244179 -57.87060547 224.06323242 C-57.86885315 222.77129471 -57.86710083 221.47935699 -57.86529541 220.14826965 C-57.86075342 216.61919004 -57.86249767 213.09013981 -57.8656745 209.56105971 C-57.86821645 205.85550978 -57.86585531 202.14996227 -57.86428833 198.44441223 C-57.86247131 192.21969148 -57.86485999 185.99498261 -57.86962891 179.77026367 C-57.87506345 172.59429252 -57.87331286 165.41834982 -57.8678025 158.24237937 C-57.86324949 152.06378665 -57.86263172 145.88520245 -57.86524117 139.70660859 C-57.86679285 136.02426679 -57.86702845 132.34193832 -57.86370468 128.6595974 C-57.86025254 124.54803182 -57.86505135 120.43651445 -57.87060547 116.32495117 C-57.86756912 114.51587784 -57.86756912 114.51587784 -57.86447144 112.67025757 C-57.88097234 106.05118433 -58.18132129 99.57020956 -59 93 C-58.34 93 -57.68 93 -57 93 C-56.64421875 91.95199219 -56.64421875 91.95199219 -56.28125 90.8828125 C-54.77881377 87.50233098 -52.73936703 84.78514896 -50.5 81.875 C-35.53053275 61.86809915 -22.44577178 40.6390771 -10 19 C-9.23478027 17.67234619 -9.23478027 17.67234619 -8.45410156 16.31787109 C-7.15024508 14.04894486 -5.8531042 11.77648611 -4.5625 9.5 C-4.202771 8.86553955 -3.84304199 8.2310791 -3.47241211 7.57739258 C-2.06955936 5.0662614 -0.91273821 2.73821462 0 0 Z " fill="#AD1CA7" transform="translate(448,86)"/>
<path d="M0 0 C1.13930969 -0.00571014 2.27861938 -0.01142029 3.45245361 -0.01730347 C5.30632439 -0.01898026 5.30632439 -0.01898026 7.19764709 -0.02069092 C9.1671785 -0.02813828 9.1671785 -0.02813828 11.17649841 -0.03573608 C14.7700104 -0.04881226 18.36350374 -0.0552965 21.95703578 -0.05974674 C24.2088532 -0.06268722 26.46066565 -0.06679398 28.71248055 -0.07125092 C35.77699761 -0.08491769 42.84150314 -0.09458648 49.9060325 -0.09845281 C58.02439859 -0.1029217 66.14259533 -0.12041845 74.26090997 -0.1494534 C80.55845662 -0.17118344 86.85595604 -0.1811632 93.15353972 -0.18249393 C96.903746 -0.18353455 100.65379293 -0.1892811 104.40395927 -0.20731354 C107.94089196 -0.22398978 111.47754891 -0.22585688 115.01450729 -0.21717453 C116.90452866 -0.21605665 118.79454169 -0.22962487 120.68450928 -0.243927 C142.64982192 -0.13889615 162.08560791 6.87891231 177.92835999 22.32794189 C194.16628471 38.88102704 199.31849165 58.5544507 199.3394928 81.11138916 C199.3444577 82.39544144 199.34942261 83.67949371 199.35453796 85.00245667 C199.36757887 88.50701009 199.37409091 92.01154443 199.37854862 95.51611829 C199.38149368 97.71333837 199.38560115 99.91055341 199.3900528 102.10777092 C199.40370772 109.00462522 199.41338337 115.90146778 199.41725469 122.79833466 C199.42172644 130.71802065 199.43924163 138.6375333 199.46825528 146.55716664 C199.48998782 152.70613495 199.49996514 158.85505491 199.5012958 165.00406116 C199.50233587 168.66369538 199.50807062 172.32316623 199.52611542 175.98275948 C199.65018298 202.68411567 197.82132826 227.39553633 178.46351624 247.98419189 C161.30816901 264.17180158 141.38299611 270.29436823 118.27333069 270.28570557 C116.98460556 270.28906418 115.69588043 270.29242279 114.36810303 270.29588318 C110.84715816 270.30468214 107.32623763 270.30705961 103.80528283 270.30769897 C101.59988356 270.30841202 99.39449039 270.31055121 97.18909264 270.31319618 C89.47888678 270.3224374 81.76869815 270.32653277 74.05848694 270.32574463 C66.89843879 270.32514479 59.7384662 270.33568123 52.57843715 270.35148829 C46.41000306 270.36461552 40.2415935 270.36992633 34.07314557 270.36928922 C30.39854247 270.36903567 26.72400654 270.37180698 23.0494175 270.38246727 C18.94301416 270.39405574 14.83677727 270.38936989 10.73036194 270.38336182 C9.5315036 270.38898132 8.33264526 270.39460083 7.09745789 270.40039062 C-14.96050688 270.31879278 -33.9237283 263.31641848 -49.69664001 247.89044189 C-65.76470245 231.43609335 -71.1289488 211.09037513 -71.11216736 188.56939697 C-71.11888458 187.2572522 -71.12560181 185.94510742 -71.13252258 184.59320068 C-71.15003962 181.02469067 -71.1548719 177.45627684 -71.15615416 173.88772798 C-71.15758467 171.64876663 -71.16187117 169.40982904 -71.16714859 167.17087364 C-71.18560282 159.33283333 -71.19382516 151.49486063 -71.19224548 143.65679932 C-71.1910459 136.39440769 -71.21212407 129.13231411 -71.24373281 121.8699978 C-71.27003845 115.59865091 -71.28060682 109.3274005 -71.27933466 103.05599898 C-71.27882913 99.32647441 -71.28428213 95.59721508 -71.30569077 91.86774635 C-71.44975876 64.87270368 -68.49644306 42.97845526 -49.82164001 22.14044189 C-36.51353051 9.32016631 -18.77633648 0.05668817 0 0 Z M-32.82164001 45.14044189 C-39.373051 53.39055866 -43.36064455 61.85699657 -45.82164001 72.14044189 C-46.08530601 73.06623582 -46.08530601 73.06623582 -46.35429859 74.01073265 C-46.87546375 76.38572063 -46.95049462 78.52649845 -46.95535278 80.95797729 C-46.95961777 81.92506622 -46.96388275 82.89215515 -46.96827698 83.8885498 C-46.96782379 84.94314392 -46.96737061 85.99773804 -46.96690369 87.08428955 C-46.9702623 88.20022491 -46.97362091 89.31616028 -46.9770813 90.46591187 C-46.98659421 94.16212065 -46.98853484 97.85828412 -46.98960876 101.55450439 C-46.99282198 104.12558002 -46.99618611 106.69665547 -46.99969482 109.26773071 C-47.00568756 114.66296896 -47.00757748 120.05818925 -47.00694275 125.45343018 C-47.00634337 131.66995053 -47.01686809 137.88638371 -47.03268641 144.10288203 C-47.04739763 150.10003375 -47.05092912 156.09713861 -47.05033302 162.09431076 C-47.05151037 164.63710256 -47.05591832 167.17989505 -47.06366539 169.72267532 C-47.07350916 173.28859838 -47.07056941 176.85430011 -47.06455994 180.42022705 C-47.07017944 181.46267578 -47.07579895 182.50512451 -47.08158875 183.5791626 C-47.01281633 199.7128565 -42.19337418 213.68232407 -31.82164001 226.14044189 C-31.0230658 227.10917236 -31.0230658 227.10917236 -30.20835876 228.09747314 C-20.71531727 238.532752 -6.73218106 244.92255141 7.17835999 246.14044189 C10.91686916 246.28175193 14.65183464 246.28736518 18.39271545 246.28570557 C19.48972778 246.28906418 20.58674011 246.29242279 21.71699524 246.29588318 C25.32652432 246.30534567 28.93600679 246.30733384 32.54554749 246.30841064 C35.06606566 246.31162616 37.58658365 246.31499046 40.10710144 246.3184967 C45.38427531 246.32447597 50.66143745 246.32638079 55.93861389 246.32574463 C62.01661732 246.32514414 68.09453192 246.33569621 74.17251289 246.35148829 C80.04579701 246.3661982 85.91904628 246.36973113 91.79234695 246.3691349 C94.2793171 246.37031156 96.76628797 246.3747156 99.25324631 246.38246727 C102.73731019 246.39231146 106.22114759 246.38937169 109.70521545 246.38336182 C110.72267853 246.38898132 111.7401416 246.39460083 112.78843689 246.40039062 C130.55299233 246.32288562 145.75077915 240.34284242 158.52992249 227.83966064 C171.13150707 214.17614478 175.33173987 199.20830456 175.32362366 180.94195557 C175.32698227 179.84654953 175.33034088 178.75114349 175.33380127 177.62254333 C175.34326447 174.01782076 175.34525203 170.41314486 175.34632874 166.80841064 C175.34954444 164.2902881 175.35290875 161.77216574 175.35641479 159.25404358 C175.36239442 153.98106587 175.36429887 148.70809991 175.36366272 143.43511963 C175.36306254 137.36508853 175.37360828 131.29514648 175.38940638 125.22513789 C175.40412698 119.35719656 175.40764891 113.48929009 175.40705299 107.62133217 C175.40822881 105.13797962 175.41262808 102.65462634 175.42038536 100.17128563 C175.43024283 96.68982033 175.4272845 93.20858118 175.42127991 89.72711182 C175.42689941 88.71324402 175.43251892 87.69937622 175.43830872 86.65478516 C175.35872608 68.38794181 169.30121009 53.9546162 156.99085999 40.45294189 C143.4634649 27.63427138 127.78677292 24.01013308 109.85975647 23.96343994 C108.75126846 23.95686874 107.64278046 23.95029755 106.5007019 23.94352722 C102.85028502 23.92389776 99.1999091 23.91215414 95.54945374 23.90216064 C94.29573534 23.89808512 93.04201694 23.89400959 91.75030708 23.88981056 C85.79531868 23.87113313 79.84034307 23.85655837 73.88533252 23.84819859 C67.05566481 23.83844746 60.22632301 23.81216837 53.39676994 23.7716977 C47.44556162 23.73766571 41.49443122 23.72603474 35.54312325 23.7219944 C33.02956496 23.71715126 30.51600958 23.70560297 28.00251579 23.68695641 C3.88155786 23.51914594 -15.70226372 26.20106546 -32.82164001 45.14044189 Z " fill="#FEFCFD" transform="translate(191.82164001464844,120.85955810546875)"/>
<path d="M0 0 C0.98871094 0.4228125 1.97742188 0.845625 2.99609375 1.28125 C19.52167135 9.34479425 31.90689547 25.29894922 37.84936523 42.45166016 C39.99300463 49.53404524 40.57899833 56.24694533 40.5625 63.625 C40.55887451 65.3275293 40.55887451 65.3275293 40.55517578 67.06445312 C40.1471595 85.87053693 32.03603765 100.72416901 19 114 C18.31164062 114.71285156 17.62328125 115.42570312 16.9140625 116.16015625 C10.78523455 122.07253861 3.74309986 125.65735033 -4 129 C-4.98355469 129.43699219 -5.96710938 129.87398437 -6.98046875 130.32421875 C-22.46118827 136.15249492 -41.03893182 134.57355054 -56 128 C-74.45812036 119.17601127 -86.28718588 104.39224711 -93.8125 85.6875 C-96.19969928 78.27461802 -96.21154358 70.97973959 -96.25 63.25 C-96.270625 62.2290625 -96.29125 61.208125 -96.3125 60.15625 C-96.3962045 43.66646341 -89.64559183 27.86056393 -78.20019531 16.02685547 C-76.82236489 14.66175654 -75.41163206 13.33011528 -74 12 C-73.20851562 11.25105469 -72.41703125 10.50210938 -71.6015625 9.73046875 C-52.14575982 -7.17216381 -23.32421214 -10.06877585 0 0 Z " fill="#FEFDFD" transform="translate(284,192)"/>
<path d="M0 0 C0.33 0 0.66 0 1 0 C1.04642573 13.25681 1.0819212 26.51360052 1.10362434 39.77047539 C1.11404293 45.9267655 1.12816699 52.08299981 1.15087891 58.23925781 C1.17267588 64.18500438 1.1845831 70.13069741 1.18975449 76.07648087 C1.19343794 78.34016894 1.20063072 80.60385422 1.21146011 82.86751938 C1.22606606 86.04829902 1.22797413 89.22885996 1.22705078 92.40966797 C1.23424133 93.33684128 1.24143188 94.26401459 1.24884033 95.21928406 C1.19413566 112.73710308 -5.06571424 127.68295717 -17.23046875 140.31640625 C-30.6484754 152.8319629 -45.38970329 157.18268471 -63.36328125 157.11352539 C-64.36906723 157.11367142 -65.37485321 157.11381744 -66.41111755 157.1139679 C-69.71160086 157.11327526 -73.01202664 157.10551341 -76.3125 157.09765625 C-78.61035125 157.09578976 -80.9082029 157.09436695 -83.20605469 157.09336853 C-89.23611562 157.08956153 -95.26615224 157.07974682 -101.29620361 157.06866455 C-107.45658031 157.0584113 -113.61696097 157.05386254 -119.77734375 157.04882812 C-131.85157315 157.03812286 -143.92578455 157.02106834 -156 157 C-150.51946935 151.49775197 -150.51946935 151.49775197 -147.8359375 149.203125 C-146.99748291 148.48467407 -146.99748291 148.48467407 -146.14208984 147.75170898 C-145.5589502 147.25614502 -144.97581055 146.76058105 -144.375 146.25 C-143.75963379 145.72414307 -143.14426758 145.19828613 -142.51025391 144.65649414 C-138.83991674 141.53038594 -135.12765188 138.46471191 -131.375 135.4375 C-121.1851563 127.22012475 -121.1851563 127.22012475 -112.1796875 117.796875 C-108.95645805 115.13973244 -105.60667528 114.78429838 -101.5625 114.0625 C-81.44596415 109.99796131 -64.94243519 101.11113505 -53.1875 83.75 C-46.91162039 73.13969994 -43.4982789 62.6145384 -41.93359375 50.4609375 C-40.81285551 46.30623423 -39.23378247 44.76490818 -36 42 C-31.13127116 37.33227372 -26.82272659 32.42131764 -22.59375 27.1640625 C-19.61193075 23.48852347 -16.49082504 19.93689591 -13.375 16.375 C-9.13020238 11.52038811 -5.02382579 6.61865694 -1.171875 1.44140625 C-0.78515625 0.96574219 -0.3984375 0.49007812 0 0 Z " fill="#CE1C92" transform="translate(366,210)"/>
<path d="M0 0 C0.95197266 -0.02900391 1.90394531 -0.05800781 2.88476562 -0.08789062 C15.48592792 -0.19940534 25.48862236 5.58126846 34.625 13.9375 C42.49760536 22.14009481 46.38418605 32.80609319 46.75 44 C46.51263681 55.07229485 43.86300751 64.28383816 37.4375 73.3125 C36.695 74.364375 35.9525 75.41625 35.1875 76.5 C25.98313329 85.91355686 14.12642897 91.28078345 0.9375 91.625 C-11.56537145 91.47159053 -22.62581159 86.58516354 -31.84765625 78.24609375 C-41.42188256 68.24236944 -45.01707278 55.78832128 -44.99633789 42.23046875 C-44.70547693 30.37396232 -39.02644303 19.47551458 -30.46484375 11.3125 C-21.01952195 3.58299503 -12.04973668 0.11899016 0 0 Z " fill="#FA3B82" transform="translate(254.5625,210.6875)"/>
<path d="M0 0 C0 0.33 0 0.66 0 1 C-0.86443726 1.09704224 -0.86443726 1.09704224 -1.74633789 1.19604492 C-68.81947327 8.89990007 -131.05107993 38.99587373 -174.6875 91.4375 C-176.14030998 93.27969528 -177.57699997 95.13468202 -179 97 C-179.41813965 97.54172852 -179.8362793 98.08345703 -180.26708984 98.64160156 C-187.94859789 108.63512862 -194.68957865 119.09407607 -201 130 C-201.39429199 130.67724121 -201.78858398 131.35448242 -202.19482422 132.05224609 C-219.95006446 162.92137806 -230.04671651 198.61065372 -233 234 C-233.33 234 -233.66 234 -234 234 C-234.65587185 217.15721093 -233.5789633 202.21716167 -229 186 C-228.57171901 184.36750123 -228.1446128 182.73469376 -227.71875 181.1015625 C-213.70640757 129.35646753 -179.50975464 79.43731161 -136 48 C-134.85225242 47.14665608 -133.70512638 46.29247561 -132.55859375 45.4375 C-124.36592098 39.39191996 -115.84673093 34.03175896 -107 29 C-106.36819824 28.63551758 -105.73639648 28.27103516 -105.08544922 27.89550781 C-85.02690139 16.41466179 -63.29006464 8.84153418 -41 3 C-40.31357422 2.80792969 -39.62714844 2.61585937 -38.91992188 2.41796875 C-26.21602281 -1.11164053 -13.06337138 -0.28943954 0 0 Z " fill="#FFFEFC" transform="translate(234,0)"/>
<path d="M0 0 C4.12593192 2.87855716 7.06537651 6.00862953 8.6875 10.875 C9.50667001 16.80813138 8.78530062 21.21857879 5.3046875 26.14453125 C1.5778256 30.13245353 -2.55697326 31.62861028 -7.875 32.375 C-13.44264127 31.56516127 -16.93288895 29.39983326 -20.6875 25.25 C-24.21748225 20.09079517 -24.00890926 14.9940117 -23.3125 8.875 C-21.69521327 5.02303908 -19.20935875 2.66936061 -16.125 -0.0625 C-10.7384809 -2.09740722 -5.40937701 -1.83714691 0 0 Z " fill="#FEFBFC" transform="translate(336.3125,168.125)"/>
<path d="M0 0 C32.78269127 -1.6157953 67.62825112 9.76130282 96 26 C96.495 26.99 96.495 26.99 97 28 C92.53431585 26.62761902 88.3355005 24.87052598 84.07397461 22.97949219 C57.29212107 11.12494455 29.23366271 3.39620186 0 1 C0 0.67 0 0.34 0 0 Z " fill="#FFFDFC" transform="translate(278,0)"/>
<path d="M0 0 C0.33 0 0.66 0 1 0 C1.06469482 0.58152832 1.12938965 1.16305664 1.19604492 1.76220703 C2.86831585 16.43512842 5.2895322 30.70222456 9 45 C9.21495117 45.83063965 9.42990234 46.6612793 9.65136719 47.51708984 C12.98592632 60.090222 17.6817558 71.93273629 22.828125 83.8671875 C24.4047847 87.53153478 25.83446843 91.17964653 27 95 C24.63914426 92.85224211 23.29523011 90.90175047 21.984375 88 C21.443573 86.808302 21.443573 86.808302 20.8918457 85.5925293 C20.51503662 84.73699463 20.13822754 83.88145996 19.75 83 C19.35449951 82.10643799 18.95899902 81.21287598 18.55151367 80.29223633 C11.39748763 63.92143767 6.05900865 47.4040482 2 30 C1.79987305 29.16436523 1.59974609 28.32873047 1.39355469 27.46777344 C0.03718808 21.37488853 -0.24495268 15.60331249 -0.125 9.375 C-0.11597656 8.46621094 -0.10695312 7.55742187 -0.09765625 6.62109375 C-0.07442125 4.41376901 -0.04176346 2.20703834 0 0 Z " fill="#FFFCFB" transform="translate(0,278)"/>
</svg>
