<?xml version="1.0" encoding="UTF-8"?>
<svg version="1.1" xmlns="http://www.w3.org/2000/svg" width="512" height="512">
<path d="M0 0 C7.64941954 7.14928236 14.55983919 14.73477733 21 23 C22.00748515 24.2554711 23.01532077 25.510661 24.0234375 26.765625 C36.05276868 41.9188943 45.92848455 58.4229648 54 76 C54.4942749 77.07121094 54.4942749 77.07121094 54.99853516 78.1640625 C69.62886489 110.29341408 76.4613396 144.92300805 76.3125 180.125 C76.30976578 181.47328888 76.30976578 181.47328888 76.30697632 182.84881592 C76.25955194 196.77057541 75.62441736 210.29673638 73 224 C72.83902832 224.90137695 72.67805664 225.80275391 72.51220703 226.73144531 C64.30151502 272.08349051 43.41725259 314.26458119 12 348 C10.82858546 349.35006164 9.6617058 350.70407514 8.5 352.0625 C1.34625512 360.23352053 -6.47786469 367.28455737 -15 374 C-16.48113281 375.18916016 -16.48113281 375.18916016 -17.9921875 376.40234375 C-39.90012021 393.69376695 -64.54052399 407.10065448 -91 416 C-91.80147461 416.27392578 -92.60294922 416.54785156 -93.42871094 416.83007812 C-155.95859715 437.88476598 -224.79254807 431.39757625 -283.73706055 402.77075195 C-306.51023669 391.39388468 -326.77327749 376.73102858 -345 359 C-345.55026855 358.47019531 -346.10053711 357.94039063 -346.66748047 357.39453125 C-353.99464798 350.32147302 -360.72554352 343.03950323 -367 335 C-367.74121094 334.11054688 -368.48242188 333.22109375 -369.24609375 332.3046875 C-397.32880482 297.72006795 -412.79816606 254.66949419 -419 211 C-419.1045752 210.27530518 -419.20915039 209.55061035 -419.31689453 208.80395508 C-420.42573044 199.69821044 -420.24394872 190.47085157 -420.25 181.3125 C-420.25067474 180.39615784 -420.25134949 179.47981567 -420.25204468 178.53570557 C-420.23560653 164.47540368 -419.66069585 150.84033226 -417 137 C-416.75056641 135.62400635 -416.75056641 135.62400635 -416.49609375 134.22021484 C-412.36391926 111.77255956 -405.05030816 90.4718906 -395 70 C-394.44892578 68.87706543 -394.44892578 68.87706543 -393.88671875 67.73144531 C-388.69180339 57.28195567 -382.75721781 47.50824796 -376 38 C-375.54254395 37.3517627 -375.08508789 36.70352539 -374.61376953 36.03564453 C-367.67067239 26.27049899 -360.09322471 17.36157437 -351.73486328 8.78173828 C-350.05001729 7.05136873 -348.38203061 5.30595791 -346.71484375 3.55859375 C-339.88148392 -3.52328955 -332.66606196 -9.77650587 -324.78271484 -15.66162109 C-323.01244753 -16.99065497 -321.26536106 -18.34611651 -319.51953125 -19.70703125 C-309.30640085 -27.56101293 -298.35632594 -33.94453328 -287 -40 C-285.75935791 -40.66346436 -285.75935791 -40.66346436 -284.49365234 -41.34033203 C-257.4845114 -55.54179108 -227.2930517 -63.87999707 -197 -67 C-195.55560547 -67.16628906 -195.55560547 -67.16628906 -194.08203125 -67.3359375 C-122.35957004 -74.34711601 -52.56812248 -48.32733277 0 0 Z M-259 69 C-281.01155016 93.63342456 -288.71778914 121.36200641 -287 154 C-285.96171147 167.82682595 -280.0622031 182.65570621 -269.62109375 192.1015625 C-262.2767527 197.42101072 -253.94822398 201.38931968 -245 203 C-240.71114914 194.20286869 -239.06938021 187.49776139 -242 178 C-243.8599681 173.91960487 -246.12759217 170.07425815 -248.3671875 166.19335938 C-255.91787119 152.5998948 -255.46342776 136.64932764 -252.09765625 121.79296875 C-245.646413 99.5005944 -230.85833283 81.83052325 -210.95703125 70.07519531 C-190.81278559 59.00792262 -166.05095079 55.19458797 -143.84765625 61.609375 C-127.49871703 67.23391378 -113.73408051 76.16953997 -105.375 91.625 C-93.50194069 116.36692359 -95.41335776 148.89973085 -104.02050781 174.42407227 C-110.44695364 192.16132085 -120.03107359 206.32432788 -137.140625 215.09765625 C-146.23885383 218.83070816 -158.81748423 218.26091744 -167.94921875 214.9765625 C-172.24197061 212.93239495 -174.99793255 210.382162 -177.8125 206.5 C-180.54167636 198.45611179 -180.3548689 190.49857699 -178.85546875 182.20703125 C-178.72439224 181.47524658 -178.59331573 180.74346191 -178.45826721 179.98950195 C-176.65148523 170.49339494 -173.63418835 161.34761765 -170.68579102 152.15673828 C-163.26303604 129.41733748 -163.26303604 129.41733748 -167.625 106.75 C-172.42528287 101.19177773 -178.66169617 97.76608666 -186 97 C-193.27394007 96.80246489 -198.33278181 98.48282399 -204 103 C-204.59554687 103.46019531 -205.19109375 103.92039062 -205.8046875 104.39453125 C-214.94860757 112.42086109 -220.21050988 126.28927149 -221.17578125 138.16210938 C-221.78973032 148.7308041 -221.215669 158.14650859 -217 168 C-216.67 168.33 -216.34 168.66 -216 169 C-216.00365213 177.22993556 -218.38381979 185.23896734 -220.421875 193.140625 C-220.76815608 194.51153652 -221.11345006 195.8826977 -221.45782471 197.25408936 C-222.90530496 203.01130756 -224.36917326 208.76430184 -225.84179688 214.51513672 C-235.68919088 252.68203184 -235.68919088 252.68203184 -239.1328125 291.8125 C-239.13410156 292.99070312 -239.13539063 294.16890625 -239.13671875 295.3828125 C-239.13091797 297.17332031 -239.13091797 297.17332031 -239.125 299 C-239.12886719 300.19367188 -239.13273437 301.38734375 -239.13671875 302.6171875 C-239.78569986 315.36092802 -239.78569986 315.36092802 -236 327 C-206.61910317 302.71015628 -198.99009328 263.62601905 -192 228 C-191.12859375 228.56847656 -190.2571875 229.13695312 -189.359375 229.72265625 C-185.58859564 232.17326311 -181.79733731 234.59081023 -178 237 C-176.93910156 237.67675781 -175.87820312 238.35351562 -174.78515625 239.05078125 C-160.58415259 247.76545761 -145.8952653 248.97807916 -129.6875 245.8125 C-106.21953983 239.96581096 -87.67150026 225.57576803 -74.890625 205.234375 C-62.25765655 184.17942758 -56.77047909 159.97984657 -56.75 135.625 C-56.74932526 134.90757629 -56.74865051 134.19015259 -56.74795532 133.45098877 C-56.78982701 105.45956985 -64.17183209 82.25685291 -83.875 61.8125 C-108.65643325 37.74339237 -142.20080098 31.41487516 -175.54296875 31.7890625 C-206.8484751 32.42149697 -237.29772249 46.53175975 -259 69 Z " fill="#000000" transform="translate(428,81)"/>
</svg>
